# xmcd
#
# Track frame offsets:
#	150
#	18608
#	35405
#	51422
#	69277
#	84591
#	98488
#	113145
#	128108
#	145500
#	160300
#	175198
#	190898
#	201602
#	217315
#
# Disc length: 3083 seconds
#
# Revision: 0
# Processed by: cddbd v1.5.1PL0 Copyright (c) Steve Scherf et al.
# Submitted via: MusicWizard 7.1.1b
#
DISCID=d90c090f
DTITLE=Christina - Freier Fall
DYEAR=2003
DGENRE=Deutsch Pop
TTITLE0=Geh Nicht Wenn Du Kommst
TTITLE1=Schwarz Weiß
TTITLE2=Anzug
TTITLE3=Mama
TTITLE4=Rebellen Der Sonne
TTITLE5=Astronaut
TTITLE6=Spieglein
TTITLE7=Engel Fliegen Einsam
TTITLE8=Mehr Waffen
TTITLE9=Hier Bin Ich
TTITLE10=Wo Ist Deine Liebe
TTITLE11=Ich Lebe
TTITLE12=Mit Dir
TTITLE13=Ich Lebe  (Unplugged)
TTITLE14=Christina Stürmer - Your Own Way
EXTD=
EXTT0=
EXTT1=
EXTT2=
EXTT3=
EXTT4=
EXTT5=
EXTT6=
EXTT7=
EXTT8=
EXTT9=
EXTT10=
EXTT11=
EXTT12=
EXTT13=
EXTT14=
PLAYORDER=
